<svg id="Layer_1" xmlns="http://www.w3.org/2000/svg" viewBox="0 0 277.9 41.6"><style>.st0{fill:#f39719}.st1{fill:#fff}</style><g id="Layer_1_1_"><path class="st0" d="M277.7 21.3c-.1-.2-.2-.4-.7-.4h-11.2c-.4 0-.9-.4-1.1-.8l-3.5-10.6c-.2-.5-.4-.6-.6-.6-.2 0-.4.1-.6.6l-3.4 10.7c-.1.4-.6.8-1.1.8h-11.2c-.5 0-.7.2-.7.4s0 .4.4.7l9.1 6.6c.4.3.6.8.4 1.3l-3.4 10.7c-.2.5 0 .7.1.8.1 0 .1.1.3.1.1 0 .3-.1.5-.2l9-6.6c.4-.3 1-.3 1.3 0l9.1 6.6c.4.3.7.2.8.1.1-.1.3-.3.1-.8l-3.5-10.6c-.1-.4 0-1 .4-1.3l9-6.6c.6-.4.6-.7.5-.9zM249.6 12.7c.4 0 .6-.1.6-.3.1-.1.1-.4-.2-.6L245.6 8c-.2-.2-.3-.6-.2-.8l2.3-5.4c.2-.4.1-.6-.1-.7-.1-.1-.3-.2-.7 0l-5 3c-.2.1-.6.1-.9-.1L236.6.2c-.3-.3-.5-.2-.6-.2-.1.1-.3.2-.2.6l1.3 5.7c.1.3-.1.6-.3.8l-5 3c-.3.2-.4.4-.3.6 0 .1.2.3.6.4l5.8.5c.3 0 .6.3.7.6l1.3 5.7c.1.4.3.5.4.5.1 0 .3-.1.5-.4l2.3-5.4c.1-.3.5-.5.7-.4l5.8.5zM227.2 8.5l-1.9-1.1c-.2-.1-.4-.5-.4-.8l.5-2.2c.1-.4-.1-.6-.2-.6-.1-.1-.3-.1-.6.2l-1.7 1.5c-.2.2-.6.2-.9.1l-1.9-1.1c-.4-.2-.6-.1-.7 0-.1.1-.2.3 0 .7l.9 2c.1.3 0 .7-.2.8l-1.7 1.5c-.3.3-.3.5-.2.6s.2.3.6.2l2.2-.2c.3 0 .6.2.7.4l.9 2c.2.3.3.4.5.4.1 0 .3-.1.4-.5l.5-2.2c.1-.3.4-.5.6-.6l2.2-.2c.4 0 .5-.2.6-.4.2-.1.2-.3-.2-.5z"/><path class="st1" d="M11.8 21.5c0 2-.5 3.1-2 3.5 1.8.6 2.4 1.9 2.4 4.2 0 3.6-1.9 5.2-6.1 5.2H1.8c-.6 0-1.1 0-1.5-.2s-.4-.9-.4-2.4c0-1.3.1-2.4.1-3.5 0-1.4-.1-2.9-.1-4.2s.1-2.7.1-4.4c0-.5-.1-.9-.1-1.4 0-.6.7-.9 2-.9h4.9c3.3.1 5 1.4 5 4.1zM5.7 31c1 0 1.7-.7 1.7-1.9 0-1.3-.5-1.8-1.7-1.8-.7 0-1 .2-1 .8v2c-.1.5.2.9 1 .9zm-.4-7.4c1.2 0 1.8-.5 1.8-1.5 0-.8-.6-1.3-1.5-1.3-.6 0-.9.2-.9.5v1.9c0 .3.3.4.6.4zM18.4 22.2v6.2c0 1.6 0 2.5 1.1 2.5.9 0 1.3-.6 1.3-1.8V24c0-.7-.2-1.4-.2-2.1 0-1 .4-1 1.6-1h2.1c.9 0 1.1.2 1.1 1.3v9.5c0 .3.1.8.1 1.4 0 1.2-.2 1.4-1.9 1.4h-1.7c-.9 0-1.1-.1-1.1-.8v-.2h-.2c-.8.8-1.7 1.2-3 1.2-2.7 0-3.7-1.5-3.7-4.6v-7.3c0-1.3.1-1.9 1.5-1.9h1.1c1.7 0 1.9.2 1.9 1.3zM27.4 32.1v-.4c0-.7.1-1 .8-1 .4 0 .9.3 1.8.3s1.4-.2 1.4-.9c0-.8-.9-1.1-1.8-1.8-1.5-1.1-2.2-2.2-2.2-3.7 0-2.4 2.1-3.9 4.9-3.9 2.4 0 3.2 0 3.2 1.2v1.4c0 .7-.3 1-1 1-.3 0-.7-.1-1.2-.1-.7 0-1.1.3-1.1.8s.9 1.1 2.1 2.1c1.3 1.1 1.9 2.2 1.9 3.5 0 2.6-2 4.3-5.5 4.3-2.2 0-3.3-.3-3.3-.9v-1.9zM37.9 23.1V22c0-.9.4-1.1 1.7-1.1h1.9c1 0 1.3.1 1.3.7v11.7c0 .9-.1 1.1-1.1 1.1h-2.8c-.8 0-.9-.3-.9-1.1v-.5l-.1-9.7zm0-4.6c0-1 .2-1.3 1.3-1.3h2.3c1.3 0 1.3.2 1.3 1.5 0 1.4-.3 1.5-1.8 1.5h-.8c-2.2 0-2.3-.1-2.3-1.7zM52 33.1v-6.2c0-1.6 0-2.5-1.1-2.5-.9 0-1.3.6-1.3 1.8v5.1c0 .8.2 1.5.2 2.1 0 1-.4 1-1.6 1h-2c-.9 0-1.1-.3-1.1-1.3v-9.4c0-.3-.1-.8-.1-1.4 0-1.2.2-1.4 1.9-1.4h1.7c.9 0 1.1.1 1.1.8v.2h.2c.8-.8 1.7-1.2 3-1.2 2.7 0 3.7 1.5 3.7 4.6v7.3c0 1.3-.1 1.9-1.5 1.9h-1.2c-1.7 0-1.9-.3-1.9-1.4zM69.1 33.2c0 .4-.1.7-.3.8-.6.3-2.1.7-3.9.7-4.8 0-6.7-2.2-6.7-7.1 0-4.7 1.6-6.8 5.7-6.8 2.1 0 3.6.7 4.7 2.1.7 1 .7 2.4.7 4.4 0 1.3-.1 1.9-1.1 1.9h-4.9c-.2 0-.5.2-.5.3 0 1.2.8 1.7 2.7 1.7 1.3 0 2-.6 2.5-.6.7 0 1.1.3 1.1.9v1.7zm-4.7-6.9c.7 0 .8-.2.8-.8 0-1.2-.3-1.7-1.3-1.7-.7 0-1 .4-1 1.3 0 .8.1 1.1.6 1.1h.9v.1zM70.8 32.1v-.4c0-.7.1-1 .8-1 .4 0 .9.3 1.8.3s1.4-.2 1.4-.9c0-.8-.9-1.1-1.8-1.8-1.5-1.1-2.2-2.2-2.2-3.7 0-2.4 2.1-3.9 4.9-3.9 2.4 0 3.2 0 3.2 1.2v1.4c0 .7-.3 1-1 1-.3 0-.7-.1-1.2-.1-.7 0-1.1.3-1.1.8s.9 1.1 2.1 2.1c1.3 1.1 1.9 2.2 1.9 3.5 0 2.6-2 4.3-5.5 4.3-2.2 0-3.3-.3-3.3-.9v-1.9zM81 32.1v-.4c0-.7.1-1 .8-1 .4 0 .9.3 1.8.3s1.4-.2 1.4-.9c0-.8-.9-1.1-1.8-1.8-1.5-1.1-2.2-2.2-2.2-3.7 0-2.4 2.1-3.9 4.9-3.9 2.4 0 3.2 0 3.2 1.2v1.4c0 .7-.3 1-1 1-.3 0-.7-.1-1.2-.1-.7 0-1.1.3-1.1.8s.9 1.1 2.1 2.1c1.3 1.1 1.9 2.2 1.9 3.5 0 2.6-2 4.3-5.5 4.3-2.2 0-3.3-.3-3.3-.9v-1.9zM102 33.2c0 .4-.1.7-.3.8-.6.3-2.1.7-3.9.7-4.8 0-6.7-2.2-6.7-7.1 0-4.7 1.6-6.8 5.8-6.8 2.1 0 3.6.7 4.6 2.1.7 1 .7 2.4.7 4.4 0 1.3-.1 1.9-1.1 1.9h-4.9c-.2 0-.5.2-.5.3 0 1.2.8 1.7 2.7 1.7 1.3 0 2-.6 2.5-.6.7 0 1.1.3 1.1.9v1.7zm-4.8-6.9c.7 0 .8-.2.8-.8 0-1.2-.3-1.7-1.3-1.7-.7 0-1 .4-1 1.3 0 .8.1 1.1.6 1.1h.9v.1zM103.6 32.1v-.4c0-.7.1-1 .8-1 .4 0 .9.3 1.8.3s1.4-.2 1.4-.9c0-.8-.9-1.1-1.8-1.8-1.5-1.1-2.2-2.2-2.2-3.7 0-2.4 2.1-3.9 4.9-3.9 2.4 0 3.2 0 3.2 1.2v1.4c0 .7-.3 1-1 1-.3 0-.7-.1-1.2-.1-.7 0-1.1.3-1.1.8s.9 1.1 2.1 2.1c1.3 1.1 1.9 2.2 1.9 3.5 0 2.6-2 4.3-5.5 4.3-2.2 0-3.3-.3-3.3-.9v-1.9zM114 19.7v-1.1c0-.9.3-1.1 1.3-1.1h7c1 0 1.4.3 1.4 1.2 0 .3-.1.7-.1 1.1 0 1.4-.4 1.4-2.8 1.4h-.9c-1 0-1.1.1-1.1 1.3s0 1.2 1.7 1.2h.2c.7 0 1.3-.1 1.8-.1.7 0 .9.3.9 1v1.5c0 1-.2 1.3-1.5 1.3h-1.8c-1 0-1.2.2-1.2 1.2V32c0 .8.1 1.3.1 1.5 0 .6-.3.9-1.2.9-.6 0-1.2-.1-1.9-.1-.4 0-.9.1-1.3.1-.7 0-.7-.3-.7-.9V33 19.7h.1zM125.8 22.4c1.1-1.3 2.5-1.7 4.6-1.7 4.2 0 5.4 2 5.4 6.3 0 2.7 0 4.5-.7 5.5-1 1.5-2.5 2.2-4.9 2.2-4.3 0-5.4-2.3-5.4-7.1 0-2.5.1-4.2 1-5.2zm4.4 8.6c.9 0 1.2-.4 1.2-1.2v-3.9c0-1.1-.1-1.5-1.2-1.5-.7 0-1 .4-1 1.1v4.4c0 .7.3 1.1 1 1.1zM137.7 33.2v-9.5c0-.3-.1-.8-.1-1.4 0-1.2.2-1.4 1.9-1.4h1.5c1 0 .9.3 1 1.4h.2c.4-1.1 1.1-1.7 1.6-1.7.8 0 .9.4.9 1.3v2.5c0 .9-.1.9-.8 1-1.2.1-1.6.5-1.6 1.5v4.3c0 .8.1 1.4.1 2 0 1-.2 1.2-1.2 1.2h-2.4c-.9.1-1.1-.2-1.1-1.2zM146.4 31.3c0-.9.4-1.3 1.4-1.3.6 0 1.1.6 2.7.6 1.1 0 1.6-.3 1.6-1 0-1.1-1.4-1.7-3.1-2.9-1.8-1.3-2.6-2.7-2.6-4.5 0-3.2 2.3-4.8 6.9-4.8 3 0 3.2.2 3.2 1.5v1.7c0 .9-.2 1.2-1.1 1.2-.8 0-1.5-.3-2.2-.3-.9 0-1.4.3-1.4.9 0 .9 1.5 1.6 3.6 3.2 1.6 1.2 2.1 2.3 2.1 3.9 0 3.5-2 5.1-6.5 5.1-2 0-3.4-.3-3.9-.5s-.6-.5-.6-1v-.2l-.1-1.6zM165.7 33.6c-.3.7-1.1 1.1-2.3 1.1-2.3 0-4-1.8-4-4.8 0-3.1 1.8-5 4.3-5 .9 0 1.5.3 1.9.3.3 0 .4-.1.4-.4 0-.7-.7-1.1-1.9-1.1-1.3 0-2.2.4-2.7.4-.6 0-.7-.3-.7-.8v-1.2c0-.4 0-.7.5-.9.6-.2 2.1-.5 4-.5 3.9 0 5.1 1 5.1 3.5v9.5c0 .8-.2.8-1.4.8h-2.1c-.8 0-.8 0-.9-.9h-.2zm-2.1-3.2c0 .8.4 1.2 1.1 1.2.9 0 1.1-.4 1.1-1.3v-1.4c0-.8-.2-1.2-1-1.2s-1.2.4-1.2 1.3v1.4zM172.4 18.4c0-1 .4-1.1 1.7-1.1h2.1c.7 0 .9.2.9.8v15.4c0 .9-.1 1.1-1.1 1.1h-2.6c-.9 0-.9-.4-.9-1.3V19.4c-.1-.3-.1-.6-.1-1zM189.7 33.2c0 .4-.1.7-.3.8-.6.3-2.1.7-3.9.7-4.8 0-6.7-2.2-6.7-7.1 0-4.7 1.6-6.8 5.7-6.8 2.1 0 3.6.7 4.7 2.1.7 1 .7 2.4.7 4.4 0 1.3-.1 1.9-1.1 1.9h-4.9c-.2 0-.5.2-.5.3 0 1.2.8 1.7 2.7 1.7 1.3 0 2-.6 2.5-.6.7 0 1.1.3 1.1.9v1.7zm-4.7-6.9c.7 0 .8-.2.8-.8 0-1.2-.3-1.7-1.3-1.7-.7 0-1 .4-1 1.3 0 .8.1 1.1.6 1.1h.9v.1zM195.4 34.5h-2.7c-.8 0-1-.2-1-.9V31c0-.6.3-.7 1.1-.7h2.7c.8 0 1 .2 1 .9v2.5c0 .6-.3.8-1.1.8zM205.4 23.6c0 .9-.5.9-1.2.9-1.3.1-1.3 1-1.3 3.1 0 2 .1 2.8 1.3 2.8h.3c.7 0 .9.2.9.8v2.5c0 .6-.4.9-1.3.9-4.5 0-5.8-1.8-5.8-6.7 0-5.2 1.1-7.2 5.8-7.2 1 0 1.3.2 1.3.9v2zM208.1 22.4c1.1-1.3 2.5-1.7 4.6-1.7 4.2 0 5.4 2 5.4 6.3 0 2.7 0 4.5-.7 5.5-1 1.5-2.5 2.2-4.9 2.2-4.3 0-5.4-2.3-5.4-7.1 0-2.5.1-4.2 1-5.2zm4.4 8.6c.9 0 1.2-.4 1.2-1.2v-3.9c0-1.1-.1-1.5-1.2-1.5-.7 0-1 .4-1 1.1v4.4c0 .7.3 1.1 1 1.1zM227.8 20.7c1.6 0 2.6.4 3.5 1.5 1-1 2-1.5 3.4-1.5 2.7 0 3.7 1.5 3.7 4.6v7.3c0 1.3-.1 1.9-1.5 1.9h-1.2c-1.7 0-1.9-.2-1.9-1.3V27c0-1.6 0-2.5-1.1-2.5-.9 0-1.3.5-1.3 1.6v6.5c0 1.3-.1 1.9-1.5 1.9h-1.2c-1.7 0-1.9-.2-1.9-1.3V27c0-1.6 0-2.5-1.1-2.5-.9 0-1.3.6-1.3 1.8v5.1c0 .8.2 1.5.2 2.1 0 1-.4 1-1.6 1h-2c-.9 0-1.1-.3-1.1-1.3v-9.5c0-.3-.1-.8-.1-1.4 0-1.2.2-1.4 1.9-1.4h1.7c.9 0 1.1.1 1.1.8v.2h.2c.9-.8 1.8-1.2 3.1-1.2z"/></g></svg>